<svg xmlns="http://www.w3.org/2000/svg" height="512pt" version="1.1" viewBox="0 0 512 512" width="512pt">
<g id="surface1">
<path d="M 512 256 C 512 397.386719 397.386719 512 256 512 C 114.613281 512 0 397.386719 0 256 C 0 114.613281 114.613281 0 256 0 C 397.386719 0 512 114.613281 512 256 Z M 512 256 " style=" stroke:none;fill-rule:nonzero;fill:rgb(20%,22.352941%,25.098039%);fill-opacity:1;" />
<path d="M 418.488281 197 L 287.351562 65.863281 L 221.859375 190.035156 L 6.84375 197 L 230.59375 420.746094 L 218 439.5 L 288.460938 509.960938 C 414.519531 494.007812 512 386.390625 512 256 C 512 247.648438 511.585938 239.394531 510.804688 231.246094 L 505.15625 197 Z M 418.488281 197 " style=" stroke:none;fill-rule:nonzero;fill:rgb(13.72549%,15.294118%,16.862745%);fill-opacity:1;" />
<path d="M 6.84375 197 L 505.15625 197 C 501.730469 182.484375 497.070312 168.445312 491.289062 155 L 20.710938 155 C 14.929688 168.445312 10.269531 182.484375 6.84375 197 Z M 6.84375 197 " style=" stroke:none;fill-rule:nonzero;fill:rgb(2.352941%,80%,67.058824%);fill-opacity:1;" />
<path d="M 491.289062 155 L 255.761719 155 L 255.761719 197 L 505.15625 197 C 501.730469 182.484375 497.070312 168.445312 491.289062 155 Z M 491.289062 155 " style=" stroke:none;fill-rule:nonzero;fill:rgb(0%,74.117647%,61.568627%);fill-opacity:1;" />
<path d="M 218 277.671875 L 294 277.671875 L 294 420.226562 L 218 420.226562 Z M 218 277.671875 " style=" stroke:none;fill-rule:nonzero;fill:rgb(100%,58.431373%,0%);fill-opacity:1;" />
<path d="M 255.761719 277.671875 L 294 277.671875 L 294 420.226562 L 255.761719 420.226562 Z M 255.761719 277.671875 " style=" stroke:none;fill-rule:nonzero;fill:rgb(99.607843%,50.980392%,1.960784%);fill-opacity:1;" />
<path d="M 218 397.5 L 294 397.5 L 294 439.5 L 218 439.5 Z M 218 397.5 " style=" stroke:none;fill-rule:nonzero;fill:rgb(99.607843%,41.568627%,8.627451%);fill-opacity:1;" />
<path d="M 255.761719 397.5 L 294 397.5 L 294 439.5 L 255.761719 439.5 Z M 255.761719 397.5 " style=" stroke:none;fill-rule:nonzero;fill:rgb(98.039216%,36.470588%,5.882353%);fill-opacity:1;" />
<path d="M 322.183594 305.953125 L 189.816406 305.953125 L 189.816406 159.855469 C 189.816406 139.976562 205.933594 123.859375 225.8125 123.859375 L 286.1875 123.859375 C 306.066406 123.859375 322.183594 139.976562 322.183594 159.855469 Z M 322.183594 305.953125 " style=" stroke:none;fill-rule:nonzero;fill:rgb(99.607843%,41.568627%,8.627451%);fill-opacity:1;" />
<path d="M 322.183594 159.855469 C 322.183594 139.976562 306.066406 123.859375 286.1875 123.859375 L 255.761719 123.859375 L 255.761719 305.953125 L 322.183594 305.953125 Z M 322.183594 159.855469 " style=" stroke:none;fill-rule:nonzero;fill:rgb(98.039216%,36.470588%,5.882353%);fill-opacity:1;" />
<path d="M 296.5 91.5 C 296.5 113.867188 278.367188 132 256 132 C 233.632812 132 215.5 113.867188 215.5 91.5 C 215.5 69.132812 233.632812 51 256 51 C 278.367188 51 296.5 69.132812 296.5 91.5 Z M 296.5 91.5 " style=" stroke:none;fill-rule:nonzero;fill:rgb(100%,58.431373%,0%);fill-opacity:1;" />
<path d="M 256 51 C 255.921875 51 255.84375 51.007812 255.761719 51.007812 L 255.761719 131.992188 C 255.84375 131.992188 255.921875 132 256 132 C 278.367188 132 296.5 113.867188 296.5 91.5 C 296.5 69.132812 278.367188 51 256 51 Z M 256 51 " style=" stroke:none;fill-rule:nonzero;fill:rgb(99.607843%,50.980392%,1.960784%);fill-opacity:1;" />
<path d="M 411.546875 361.226562 C 411.546875 391.753906 386.800781 416.5 356.273438 416.5 C 325.746094 416.5 301 391.753906 301 361.226562 C 301 330.699219 325.746094 305.953125 356.273438 305.953125 C 386.800781 305.953125 411.546875 330.699219 411.546875 361.226562 Z M 411.546875 361.226562 " style=" stroke:none;fill-rule:nonzero;fill:rgb(100%,100%,100%);fill-opacity:1;" />
<path d="M 411.546875 361.226562 C 411.546875 330.929688 387.164062 306.335938 356.953125 305.972656 L 356.953125 416.484375 C 387.164062 416.117188 411.546875 391.523438 411.546875 361.226562 Z M 411.546875 361.226562 " style=" stroke:none;fill-rule:nonzero;fill:rgb(91.372549%,92.941176%,96.078431%);fill-opacity:1;" />
</g>
</svg>