<svg id="Icon_Set" enable-background="new 0 0 64 64" height="512" viewBox="0 0 64 64" width="512" xmlns="http://www.w3.org/2000/svg"><circle cx="32" cy="12" fill="#e0e0e0" r="8"/><path d="m32 20.5c-4.687 0-8.5-3.813-8.5-8.5s3.813-8.5 8.5-8.5 8.5 3.813 8.5 8.5-3.813 8.5-8.5 8.5zm0-16c-4.136 0-7.5 3.364-7.5 7.5s3.364 7.5 7.5 7.5 7.5-3.364 7.5-7.5-3.364-7.5-7.5-7.5z" fill="#212a41"/><path d="m50 60h-2c-.552 0-1-.448-1-1v-2h4v2c0 .552-.448 1-1 1z" fill="#6c696f"/><path d="m50 60.5h-2c-.827 0-1.5-.673-1.5-1.5v-2c0-.276.224-.5.5-.5h4c.276 0 .5.224.5.5v2c0 .827-.673 1.5-1.5 1.5zm-2.5-3v1.5c0 .275.224.5.5.5h2c.276 0 .5-.225.5-.5v-1.5z" fill="#212a41"/><path d="m37 40h-32c-.552 0-1-.448-1-1v-8c0-.552.448-1 1-1h32c.552 0 1 .448 1 1v8c0 .552-.448 1-1 1z" fill="#4e4b51"/><path d="m37 40.5h-32c-.827 0-1.5-.673-1.5-1.5v-8c0-.827.673-1.5 1.5-1.5h32c.827 0 1.5.673 1.5 1.5v8c0 .827-.673 1.5-1.5 1.5zm-32-10c-.276 0-.5.225-.5.5v8c0 .275.224.5.5.5h32c.276 0 .5-.225.5-.5v-8c0-.275-.224-.5-.5-.5z" fill="#212a41"/><path d="m55 40h-32c-.552 0-1-.448-1-1v-8c0-.552.448-1 1-1h32c.552 0 1 .448 1 1v8c0 .552-.448 1-1 1z" fill="#6c696f"/><path d="m55 40.5h-32c-.827 0-1.5-.673-1.5-1.5v-8c0-.827.673-1.5 1.5-1.5h32c.827 0 1.5.673 1.5 1.5v8c0 .827-.673 1.5-1.5 1.5zm-32-10c-.276 0-.5.225-.5.5v8c0 .275.224.5.5.5h32c.276 0 .5-.225.5-.5v-8c0-.275-.224-.5-.5-.5z" fill="#212a41"/><path d="m30 60h-2c-.552 0-1-.448-1-1v-2h4v2c0 .552-.448 1-1 1z" fill="#6c696f"/><path d="m30 60.5h-2c-.827 0-1.5-.673-1.5-1.5v-2c0-.276.224-.5.5-.5h4c.276 0 .5.224.5.5v2c0 .827-.673 1.5-1.5 1.5zm-2.5-3v1.5c0 .275.224.5.5.5h2c.276 0 .5-.225.5-.5v-1.5z" fill="#212a41"/><path d="m11 60h-2c-.552 0-1-.448-1-1v-2h4v2c0 .552-.448 1-1 1z" fill="#6c696f"/><path d="m11 60.5h-2c-.827 0-1.5-.673-1.5-1.5v-2c0-.276.224-.5.5-.5h4c.276 0 .5.224.5.5v2c0 .827-.673 1.5-1.5 1.5zm-2.5-3v1.5c0 .275.224.5.5.5h2c.276 0 .5-.225.5-.5v-1.5z" fill="#212a41"/><path d="m54 38.5c-.276 0-.5-.224-.5-.5v-6c0-.276.224-.5.5-.5s.5.224.5.5v6c0 .276-.224.5-.5.5z" fill="#4e4b51"/><path d="m24 38.5c-.276 0-.5-.224-.5-.5v-6c0-.276.224-.5.5-.5s.5.224.5.5v6c0 .276-.224.5-.5.5z" fill="#8a878d"/><path d="m20 38.5c-.276 0-.5-.224-.5-.5v-6c0-.276.224-.5.5-.5s.5.224.5.5v6c0 .276-.224.5-.5.5z" fill="#302d33"/><path d="m6 38.5c-.276 0-.5-.224-.5-.5v-6c0-.276.224-.5.5-.5s.5.224.5.5v6c0 .276-.224.5-.5.5z" fill="#6c696f"/><path d="m15 37h-4c-.276 0-.5-.224-.5-.5v-3c0-.276.224-.5.5-.5h4c.276 0 .5.224.5.5v3c0 .276-.224.5-.5.5zm-3.5-1h3v-2h-3z" fill="#212a41"/><path d="m7 40h6v17h-6z" fill="#6c696f"/><path d="m13 57.5h-6c-.276 0-.5-.224-.5-.5v-17c0-.276.224-.5.5-.5h6c.276 0 .5.224.5.5v17c0 .276-.224.5-.5.5zm-5.5-1h5v-16h-5z" fill="#212a41"/><path d="m26 40h6v17h-6z" fill="#6c696f"/><path d="m32 57.5h-6c-.276 0-.5-.224-.5-.5v-17c0-.276.224-.5.5-.5h6c.276 0 .5.224.5.5v17c0 .276-.224.5-.5.5zm-5.5-1h5v-16h-5z" fill="#212a41"/><path d="m46 40h6v17h-6z" fill="#6c696f"/><path d="m52 57.5h-6c-.276 0-.5-.224-.5-.5v-17c0-.276.224-.5.5-.5h6c.276 0 .5.224.5.5v17c0 .276-.224.5-.5.5zm-5.5-1h5v-16h-5z" fill="#212a41"/><path d="m42 35.5h-3c-.276 0-.5-.224-.5-.5s.224-.5.5-.5h3c.276 0 .5.224.5.5s-.224.5-.5.5z" fill="#212a41"/><path d="m34.5 36.5h-3c-.828 0-1.5-.672-1.5-1.5 0-.828.672-1.5 1.5-1.5h3c.828 0 1.5.672 1.5 1.5 0 .828-.671 1.5-1.5 1.5z" fill="#99a2b9"/><g fill="#212a41"><path d="m34.5 37h-3c-1.103 0-2-.897-2-2s.897-2 2-2h3c1.103 0 2 .897 2 2s-.897 2-2 2zm-3-3c-.551 0-1 .448-1 1s.449 1 1 1h3c.551 0 1-.448 1-1s-.449-1-1-1z"/><path d="m30 35.5h-3c-.276 0-.5-.224-.5-.5s.224-.5.5-.5h3c.276 0 .5.224.5.5s-.224.5-.5.5z"/><path d="m54 35.5h-3c-.276 0-.5-.224-.5-.5s.224-.5.5-.5h3c.276 0 .5.224.5.5s-.224.5-.5.5z"/></g><circle cx="34.5" cy="35" fill="#b7c0d7" r="1.5"/><path d="m34.5 37c-1.103 0-2-.897-2-2s.897-2 2-2 2 .897 2 2-.897 2-2 2zm0-3c-.551 0-1 .448-1 1s.449 1 1 1 1-.448 1-1-.449-1-1-1z" fill="#212a41"/><path d="m46.5 36.5h-3c-.828 0-1.5-.672-1.5-1.5 0-.828.672-1.5 1.5-1.5h3c.828 0 1.5.672 1.5 1.5 0 .828-.671 1.5-1.5 1.5z" fill="#99a2b9"/><path d="m46.5 37h-3c-1.103 0-2-.897-2-2s.897-2 2-2h3c1.103 0 2 .897 2 2s-.897 2-2 2zm-3-3c-.551 0-1 .448-1 1s.449 1 1 1h3c.551 0 1-.448 1-1s-.449-1-1-1z" fill="#212a41"/><circle cx="46.5" cy="35" fill="#b7c0d7" r="1.5"/><path d="m46.5 37c-1.103 0-2-.897-2-2s.897-2 2-2 2 .897 2 2-.897 2-2 2zm0-3c-.551 0-1 .448-1 1s.449 1 1 1 1-.448 1-1-.449-1-1-1z" fill="#212a41"/><path d="m58.5 36.5h-3c-.828 0-1.5-.672-1.5-1.5 0-.828.672-1.5 1.5-1.5h3c.828 0 1.5.672 1.5 1.5 0 .828-.671 1.5-1.5 1.5z" fill="#99a2b9"/><path d="m58.5 37h-3c-1.103 0-2-.897-2-2s.897-2 2-2h3c1.103 0 2 .897 2 2s-.897 2-2 2zm-3-3c-.551 0-1 .448-1 1s.449 1 1 1h3c.551 0 1-.448 1-1s-.449-1-1-1z" fill="#212a41"/><circle cx="58.5" cy="35" fill="#b7c0d7" r="1.5"/><path d="m58.5 37c-1.103 0-2-.897-2-2s.897-2 2-2 2 .897 2 2-.897 2-2 2zm0-3c-.551 0-1 .448-1 1s.449 1 1 1 1-.448 1-1-.449-1-1-1z" fill="#212a41"/><path d="m34 15h-4l-2-3 2-3h4l2 3z" fill="#e0e0e0"/><path d="m34 15.5h-4c-.167 0-.323-.084-.416-.223l-2-3c-.112-.168-.112-.387 0-.555l2-3c.093-.138.249-.222.416-.222h4c.167 0 .323.084.416.223l2 3c.112.168.112.387 0 .555l-2 3c-.093.138-.249.222-.416.222zm-3.732-1h3.465l1.667-2.5-1.667-2.5h-3.465l-1.667 2.5z" fill="#212a41"/><path d="m28.924 4.615-.924 1.385 2 3h4l2-3-.923-1.385c-.947-.395-1.986-.615-3.077-.615s-2.129.22-3.076.615z" fill="#6c696f"/><path d="m34 9.5h-4c-.167 0-.323-.084-.416-.223l-2-3c-.112-.168-.112-.387 0-.555l.923-1.385c.055-.082.132-.146.224-.185 2.08-.867 4.46-.868 6.539.001.091.037.168.102.223.184l.923 1.385c.112.168.112.387 0 .555l-2 3c-.093.139-.249.223-.416.223zm-3.732-1h3.465l1.666-2.5-.653-.979c-1.751-.692-3.74-.692-5.492 0l-.653.979z" fill="#212a41"/><path d="m30 15-2 3 .923 1.385c.948.395 1.987.615 3.077.615s2.129-.22 3.077-.615l.923-1.385-2-3z" fill="#6c696f"/><path d="m32 20.5c-1.13 0-2.229-.22-3.269-.653-.091-.038-.169-.103-.224-.185l-.923-1.385c-.112-.168-.112-.387 0-.555l2-3c.093-.138.249-.222.416-.222h4c.167 0 .323.084.416.223l2 3c.112.168.112.387 0 .555l-.923 1.385c-.055.082-.132.146-.223.184-1.04.433-2.14.653-3.27.653zm-2.746-1.521c1.752.691 3.741.69 5.492 0l.653-.979-1.667-2.5h-3.465l-1.666 2.5z" fill="#212a41"/><path d="m26 9h-1.413c-.375.927-.587 1.938-.587 3s.211 2.073.587 3h1.413l2-3z" fill="#6c696f"/><path d="m26 15.5h-1.413c-.204 0-.387-.123-.463-.312-.414-1.021-.624-2.093-.624-3.188s.21-2.167.624-3.188c.077-.189.26-.312.463-.312h1.413c.167 0 .323.084.416.223l2 3c.112.168.112.387 0 .555l-2 3c-.093.138-.249.222-.416.222zm-1.068-1h.8l1.667-2.5-1.667-2.5h-.8c-.287.807-.432 1.646-.432 2.5s.145 1.693.432 2.5z" fill="#212a41"/><path d="m36 12 2 3h1.413c.376-.927.587-1.938.587-3s-.211-2.073-.587-3h-1.413z" fill="#6c696f"/><path d="m39.413 15.5h-1.413c-.167 0-.323-.084-.416-.223l-2-3c-.112-.168-.112-.387 0-.555l2-3c.093-.138.249-.222.416-.222h1.413c.204 0 .387.123.463.312.414 1.02.624 2.092.624 3.188s-.21 2.168-.624 3.188c-.076.189-.259.312-.463.312zm-1.145-1h.801c.287-.806.432-1.646.432-2.5s-.145-1.694-.432-2.5h-.801l-1.667 2.5z" fill="#212a41"/><path d="m9 55.5c-.276 0-.5-.224-.5-.5v-13c0-.276.224-.5.5-.5s.5.224.5.5v13c0 .276-.224.5-.5.5z" fill="#8a878d"/><path d="m50 55.5c-.276 0-.5-.224-.5-.5v-13c0-.276.224-.5.5-.5s.5.224.5.5v13c0 .276-.224.5-.5.5z" fill="#4e4b51"/></svg>